/* XPM */
static char *_4d92766c7f64138a267176f782f30c08exoL0jmaKYaDxHf[] = {
/* columns rows colors chars-per-pixel */
"16 16 14 1 ",
"  c #080103",
". c #330617",
"X c #3C1866",
"o c #471C45",
"O c #431C70",
"+ c #4D2381",
"@ c #542981",
"# c #562990",
"$ c #5E3190",
"% c #633CA4",
"& c #6E46B7",
"* c #724BBD",
"= c #7E58D2",
"- c #8E6AEB",
/* pixels */
"..............--",
"&&&&%&&&&&&&&%.-",
"====%=======*=&.",
"oooooooooooo%=&.",
"$$$$O$$$$$$@.=&.",
"###$+$#####+.=&.",
"####+######+.%%.",
"O+++O+++O++X.=&.",
"+$$$$$$$+$$@.=&.",
"+$#####$+$#+.=&.",
"+#######+##+.=&.",
"O+++O+++O++X.=&.",
"$$$$+$$$$$$@.%%.",
"###$+$#####+.=&.",
"++++X+++++++.=&.",
"            .=&."
};
