/* XPM */
static char *_f6bc4c695784495b4b1744c75ed0377Qy4JEUU6KzSaMNUN[] = {
/* columns rows colors chars-per-pixel */
"16 16 12 1 ",
"  c None",
". c #080103",
"X c #330617",
"o c #3C1866",
"O c #471C45",
"+ c #461E75",
"@ c #4D2381",
"# c #542981",
"$ c #562990",
"% c #5E3190",
"& c #633CA4",
"* c #7E58D2",
/* pixels */
"            .**&",
"            .*&*",
"            .X**",
"            .oOO",
"            .+%%",
"            .+$$",
"            .o$$",
"            .#@@",
"            .@%%",
"            .@$%",
"            .+$$",
"            .o@@",
"            .+%%",
"            .+$$",
"             .@@",
"              .."
};
