/* XPM */
static char *da3d04ab9b894201968155862aa79b12FgUKcufeGS74WQxa[] = {
/* columns rows colors chars-per-pixel */
"16 16 13 1 ",
"  c #080103",
". c #330617",
"X c #3C1866",
"o c #471C45",
"O c #431C70",
"+ c #431C71",
"@ c #461E75",
"# c #4D2381",
"$ c #562990",
"% c #5E3190",
"& c #633CA4",
"* c #6E46B7",
"= c #7E58D2",
/* pixels */
"................",
"****&********&**",
"====&========&==",
"oooooooooooooooo",
"%%%%O%%%%%%%%O%%",
"$$$%#%$$$$$$%#%$",
"$$$$#$$$$$$$$#$$",
"O###O###O####O##",
"#%%%%%%%#%%%%%%%",
"#$$$$$$%#%$$$$$$",
"#$$$$$$$#$$$$$$$",
"O###O###O####O##",
"%%%%#%%%%%%%%#%%",
"$$$$#$$$$$$$$#%$",
"###O@########X##",
"                "
};
