/* XPM */
static char *e3312bea88f24d01cb63625e0cfd2070ckdOreWHJkhr1Mdf[] = {
/* columns rows colors chars-per-pixel */
"16 16 12 1 ",
"  c None",
". c #080103",
"X c #330617",
"o c #520C13",
"O c #731513",
"+ c #771F21",
"@ c #2F1550",
"# c #811F1B",
"$ c #972318",
"% c #B52F1D",
"& c #4B44A1",
"* c #765CA2",
/* pixels */
"   ..........   ",
"  .$%#%%%#%%$.  ",
" .$oooooooooo$. ",
" XoOOo+OOoOOOoX ",
" XOOOo+OOoOOOOX ",
" X+OOoO+OoOOOOX ",
" X+O+oO+OoOO@OX ",
" XOO+oO+OoO@&@X ",
" XOO+oOOOoO@&*X ",
" XOO+oOOOoO@&*X ",
" XOO+oOOOoO@&&X ",
" X+OOoO+OoO@&@X ",
" X+OOoO+OoOO@OX ",
" XOOOoO+OoOOOOX ",
" XOOOoOOOoOOOOX ",
"  XXXXXXXXXXXX  "
};
