/* XPM */
static char *result[] = {
/* columns rows colors chars-per-pixel */
"16 16 9 1 ",
"  c #330617",
". c #F2B704",
"X c #805AD4",
"o c #8E6AEB",
"O c #9876FC",
"+ c #9E7EFC",
"@ c #F9DB82",
"# c #FEF8E6",
"$ c #FEFBF3",
/* pixels */
"ooOOOOXoOOOOOooo",
"oOO+++oO++++++Oo",
"oO++++O+ ++++++o",
"oO++++  . +++++O",
"oOOOO ..$ +++++O",
"ooO+++  @ +++++O",
"ooO++ ... +++++O",
"ooOO++  @ ++++Oo",
"oXoOOOX . OoOOoo",
"oXoO++ #.$ O+++O",
"XoXO++ . @ O+++O",
"XooO++ ..@ O+++O",
"XooOO++   OOO++O",
"XoXoOOOOOOOoOOOO",
"XXoooooooooooooo",
"XXXXXXXXXXXXXXXX"
};
