/* XPM */
static char *_f036f355b1246aef7ceeedcf311fa2cC5oc48OEHqOmY1JH[] = {
/* columns rows colors chars-per-pixel */
"16 16 5 1 ",
"  c #805AD4",
". c #8E6AEB",
"X c #9371EB",
"o c #9876FC",
"O c #9E7EFC",
/* pixels */
"..oooo .ooooo...",
".ooOOO.oOOOOOOo.",
".oOOOOoOOOOOOOO.",
".oOOOOoOOOOOOOOo",
".ooooooOOOOOOOOo",
"..oOOOoOOOOOOOOo",
"..oOOOoOOOOOOOOo",
"..ooOO.oOOOOOOo.",
". .ooo .ooo.oo..",
". .oOOXOOOOoOOOo",
" . oOOOOOOOoOOOo",
" ..oOOOOOoOoOOOo",
" ..ooOOOOOoooOOo",
" . .ooooooo.oooo",
"  ..............",
"                "
};
