/* XPM */
static char *_be755e00902442ded02b86298391fc7p4ow6EzQ0QCJgmJh[] = {
/* columns rows colors chars-per-pixel */
"16 16 18 1 ",
"  c black",
". c #2E222F",
"X c #313638",
"o c #422445",
"O c #57294B",
"+ c #964253",
"@ c #E36956",
"# c #CF657F",
"$ c #7E7E8F",
"% c #805AD4",
"& c #8E6AEB",
"* c #9876FC",
"= c #9E7EFC",
"- c #ED8099",
"; c #FCA790",
": c #FDCBB0",
"> c #C2C2D1",
", c white",
/* pixels */
"&&****%&*****&&&",
"&**==>>*===,,=*&",
"&*===>>,,==,>==&",
"&*===,,,,,,#>==*",
"&***,,,,,,,,-==*",
"&&*=>,;:;,,,>==*",
"&&*=>;:::;,>>-=*",
"&&**>.:..;,>,=*&",
"&%&*>::::;,,,*&&",
"&%&*=:::; ,,>==*",
"%&%*=+X  +,,>==*",
"%&&*=@@@@@,>>==*",
"%&&**@$$@@@>>==*",
"%&%&*O+++@@>****",
"%%&&&O$+>+@&&&&&",
"%%%%%%o%%o%%%%%%"
};
